<?xml version="1.0" encoding="UTF-8" standalone="no"?>
<svg width="25px" height="24px" viewBox="0 0 25 24" version="1.1" xmlns="http://www.w3.org/2000/svg" xmlns:xlink="http://www.w3.org/1999/xlink">
    <!-- Generator: Sketch 47 (45396) - http://www.bohemiancoding.com/sketch -->
    <title>2</title>
    <desc>Created with Sketch.</desc>
    <defs></defs>
    <g id="Page-1" stroke="none" stroke-width="1" fill="none" fill-rule="evenodd">
        <g id="Modes-of-transport-and-lines" transform="translate(-198.000000, -742.000000)">
            <g id="2" transform="translate(198.000000, 742.000000)">
                <path d="M0.7455,12 C0.7455,5.373 6.1175,0 12.7455,0 C19.3725,0 24.7455,5.373 24.7455,12 C24.7455,18.628 19.3725,24 12.7455,24 C6.1175,24 0.7455,18.628 0.7455,12" id="Fill-21" fill="#EE352E"></path>
                <path d="M8.9691,17.5928 C9.0001,16.8378 9.1721,16.1378 9.4791,15.5098 C9.7901,14.7698 10.5361,13.9778 11.6971,13.1488 C12.7401,12.4028 13.3971,11.8818 13.7031,11.5578 C14.1841,11.0468 14.4261,10.4778 14.4261,9.8638 C14.4261,9.3638 14.2841,8.9408 14.0051,8.6048 C13.7191,8.2648 13.3101,8.0928 12.7871,8.0928 C12.0731,8.0928 11.5771,8.3658 11.3151,8.9058 C11.1741,9.1988 11.0901,9.6358 11.0591,10.2408 L9.0951,10.2408 C9.1391,9.3448 9.3091,8.6088 9.6031,8.0518 C10.1761,6.9618 11.2121,6.4088 12.6821,6.4088 C13.8491,6.4088 14.7891,6.7358 15.4761,7.3788 C16.1601,8.0198 16.5081,8.8828 16.5081,9.9428 C16.5081,10.7558 16.2621,11.4878 15.7771,12.1148 C15.4571,12.5368 14.9201,13.0158 14.1781,13.5398 L13.2861,14.1728 C12.7241,14.5718 12.3401,14.8618 12.1331,15.0378 C11.9191,15.2228 11.7381,15.4388 11.5921,15.6798 L11.5011,15.8308 L16.5241,15.8308 L16.5241,17.5928 L8.9691,17.5928 Z" id="Fill-23" fill="#FFFFFF"></path>
            </g>
        </g>
    </g>
</svg>