<?xml version="1.0" encoding="UTF-8" standalone="no"?>
<svg width="25px" height="24px" viewBox="0 0 25 24" version="1.1" xmlns="http://www.w3.org/2000/svg" xmlns:xlink="http://www.w3.org/1999/xlink">
    <!-- Generator: Sketch 47 (45396) - http://www.bohemiancoding.com/sketch -->
    <title>3</title>
    <desc>Created with Sketch.</desc>
    <defs></defs>
    <g id="Page-1" stroke="none" stroke-width="1" fill="none" fill-rule="evenodd">
        <g id="Modes-of-transport-and-lines" transform="translate(-225.000000, -742.000000)">
            <g id="3" transform="translate(225.000000, 742.000000)">
                <path d="M0.6351,12 C0.6351,5.373 6.0071,0 12.6351,0 C19.2621,0 24.6351,5.373 24.6351,12 C24.6351,18.628 19.2621,24 12.6351,24 C6.0071,24 0.6351,18.628 0.6351,12" id="Fill-25" fill="#EE352E"></path>
                <path d="M12.6078,17.7334 C11.0498,17.7334 9.9558,17.2204 9.3538,16.2124 C9.0478,15.6934 8.8708,15.0074 8.8258,14.1744 L10.8098,14.1744 C10.8198,14.5994 10.8968,14.9594 11.0378,15.2444 C11.3248,15.8264 11.8498,16.1204 12.5998,16.1204 C13.0618,16.1204 13.4688,15.9604 13.8098,15.6444 C14.1538,15.3284 14.3288,14.8684 14.3288,14.2784 C14.3288,13.4924 14.0038,12.9594 13.3638,12.6934 C13.0208,12.5524 12.5108,12.4814 11.8048,12.4754 L11.8048,11.0804 C12.4938,11.0644 12.9698,10.9934 13.2578,10.8614 C13.7868,10.6274 14.0548,10.1494 14.0548,9.4424 C14.0548,8.9864 13.9198,8.6094 13.6508,8.3194 C13.3788,8.0284 12.9968,7.8814 12.5138,7.8814 C11.9598,7.8814 11.5438,8.0634 11.2768,8.4214 C11.0328,8.7524 10.9068,9.1874 10.9018,9.7174 L9.0288,9.7174 C9.0558,9.2064 9.1498,8.7124 9.3078,8.2484 C9.4818,7.8254 9.7628,7.4234 10.1408,7.0614 C10.4198,6.8074 10.7558,6.6094 11.1428,6.4744 C11.5308,6.3374 12.0158,6.2684 12.5848,6.2684 C13.6358,6.2684 14.4958,6.5444 15.1378,7.0854 C15.7748,7.6234 16.0978,8.3564 16.0978,9.2624 C16.0978,9.9024 15.9058,10.4484 15.5288,10.8844 C15.2908,11.1574 15.0418,11.3454 14.7868,11.4424 L14.8228,11.6354 C14.9428,11.6354 15.1808,11.7224 15.6298,12.1334 C16.1728,12.6384 16.4498,13.3384 16.4498,14.2154 C16.4498,15.1434 16.1238,15.9714 15.4798,16.6754 C14.8398,17.3774 13.8738,17.7334 12.6078,17.7334" id="Fill-27" fill="#FFFFFF"></path>
            </g>
        </g>
    </g>
</svg>