<?xml version="1.0" encoding="UTF-8" standalone="no"?>
<svg width="25px" height="25px" viewBox="0 0 25 25" version="1.1" xmlns="http://www.w3.org/2000/svg" xmlns:xlink="http://www.w3.org/1999/xlink">
    <!-- Generator: Sketch 47 (45396) - http://www.bohemiancoding.com/sketch -->
    <title>4</title>
    <desc>Created with Sketch.</desc>
    <defs></defs>
    <g id="Page-1" stroke="none" stroke-width="1" fill="none" fill-rule="evenodd">
        <g id="Modes-of-transport-and-lines" transform="translate(-710.000000, -741.000000)">
            <g id="4" transform="translate(710.000000, 741.000000)">
                <path d="M0.3041,12.6319 C0.3041,6.0049 5.6771,0.6319 12.3041,0.6319 C18.9311,0.6319 24.3041,6.0049 24.3041,12.6319 C24.3041,19.2599 18.9311,24.6319 12.3041,24.6319 C5.6771,24.6319 0.3041,19.2599 0.3041,12.6319" id="Fill-29" fill="#00933C"></path>
                <path d="M9.8148,14.1817 L12.9158,14.1817 L12.9158,8.8307 L9.8148,14.1817 Z M12.9158,18.1617 L12.9158,15.7247 L8.4308,15.7247 L8.4308,13.8787 L12.5818,7.0557 L14.8958,7.1017 L14.8958,14.1817 L16.1768,14.1817 L16.1768,15.7247 L14.8958,15.7247 L14.8958,18.1617 L12.9158,18.1617 Z" id="Fill-31" fill="#FFFFFF"></path>
            </g>
        </g>
    </g>
</svg>