<?xml version="1.0" encoding="UTF-8" standalone="no"?>
<svg width="25px" height="25px" viewBox="0 0 25 25" version="1.1" xmlns="http://www.w3.org/2000/svg" xmlns:xlink="http://www.w3.org/1999/xlink">
    <!-- Generator: Sketch 47 (45396) - http://www.bohemiancoding.com/sketch -->
    <title>5</title>
    <desc>Created with Sketch.</desc>
    <defs></defs>
    <g id="Page-1" stroke="none" stroke-width="1" fill="none" fill-rule="evenodd">
        <g id="Modes-of-transport-and-lines" transform="translate(-737.000000, -741.000000)">
            <g id="5" transform="translate(737.000000, 741.000000)">
                <path d="M0.4408,12.6319 C0.4408,6.0049 5.8138,0.6319 12.4408,0.6319 C19.0688,0.6319 24.4408,6.0049 24.4408,12.6319 C24.4408,19.2599 19.0688,24.6319 12.4408,24.6319 C5.8138,24.6319 0.4408,19.2599 0.4408,12.6319" id="Fill-41" fill="#00933C"></path>
                <path d="M12.3363,18.2715 C11.2873,18.2715 10.4163,17.9875 9.7473,17.4265 C9.1033,16.8895 8.7303,16.1215 8.6363,15.1425 L10.6643,15.1425 C10.7593,15.6065 10.9333,15.9725 11.1813,16.2335 C11.4483,16.5155 11.8403,16.6585 12.3443,16.6585 C12.9263,16.6585 13.3763,16.4495 13.6833,16.0365 C13.9833,15.6315 14.1353,15.1195 14.1353,14.5115 C14.1353,13.9155 13.9933,13.4035 13.7133,12.9905 C13.4243,12.5655 12.9713,12.3495 12.3673,12.3495 C12.0883,12.3495 11.8423,12.3845 11.6343,12.4565 C11.2803,12.5835 11.0083,12.8135 10.8213,13.1435 L8.9963,13.0575 L9.7663,6.9945 L15.8113,6.9945 L15.8113,8.6855 L11.1993,8.6855 L10.7433,11.4695 L10.9343,11.3455 C11.2693,11.1265 11.5323,10.9805 11.7173,10.9105 C12.0263,10.7945 12.4113,10.7365 12.8603,10.7365 C13.7673,10.7365 14.5683,11.0455 15.2423,11.6565 C15.9153,12.2635 16.2563,13.1645 16.2563,14.3325 C16.2563,15.3495 15.9243,16.2725 15.2723,17.0735 C14.6243,17.8685 13.6363,18.2715 12.3363,18.2715" id="Fill-43" fill="#FFFFFF"></path>
            </g>
        </g>
    </g>
</svg>