<?xml version="1.0" encoding="UTF-8" standalone="no"?>
<svg width="25px" height="25px" viewBox="0 0 25 25" version="1.1" xmlns="http://www.w3.org/2000/svg" xmlns:xlink="http://www.w3.org/1999/xlink">
    <!-- Generator: Sketch 47 (45396) - http://www.bohemiancoding.com/sketch -->
    <title>6</title>
    <desc>Created with Sketch.</desc>
    <defs></defs>
    <g id="Page-1" stroke="none" stroke-width="1" fill="none" fill-rule="evenodd">
        <g id="Modes-of-transport-and-lines" transform="translate(-764.000000, -741.000000)">
            <g id="6" transform="translate(764.000000, 741.000000)">
                <path d="M0.8822,12.6319 C0.8822,6.0049 6.2552,0.6319 12.8822,0.6319 C19.5102,0.6319 24.8822,6.0049 24.8822,12.6319 C24.8822,19.2599 19.5102,24.6319 12.8822,24.6319 C6.2552,24.6319 0.8822,19.2599 0.8822,12.6319" id="Fill-9" fill="#00933C"></path>
                <path d="M12.8666,12.5332 C12.4656,12.5332 12.1046,12.6552 11.7976,12.8972 C11.3366,13.2552 11.1026,13.8332 11.1026,14.6172 C11.1026,15.2482 11.2756,15.7712 11.6186,16.1742 C11.9656,16.5812 12.4106,16.7872 12.9446,16.7872 C13.4696,16.7872 13.8886,16.5862 14.1916,16.1892 C14.4886,15.8022 14.6376,15.2942 14.6376,14.6792 C14.6376,13.9952 14.4666,13.4612 14.1276,13.0932 C13.7866,12.7202 13.3616,12.5332 12.8666,12.5332 M12.9136,18.4002 C11.5316,18.4002 10.4986,17.8152 9.8446,16.6612 C9.3296,15.7492 9.0676,14.5522 9.0676,13.1012 C9.0676,12.2432 9.1046,11.5382 9.1766,11.0062 C9.3036,10.0602 9.5546,9.2632 9.9216,8.6372 C10.2356,8.1052 10.6516,7.6732 11.1586,7.3492 C11.6636,7.0282 12.2776,6.8652 12.9836,6.8652 C14.0066,6.8652 14.8306,7.1302 15.4336,7.6502 C16.0106,8.1462 16.3496,8.8112 16.4436,9.6272 L14.4286,9.6272 C14.4086,9.4532 14.3346,9.2662 14.2086,9.0712 C13.9496,8.6872 13.5556,8.4942 13.0386,8.4942 C12.2726,8.4942 11.7206,8.9262 11.3976,9.7772 C11.2286,10.2312 11.1106,10.9082 11.0486,11.7902 L11.0256,12.0962 L11.2236,11.8612 C11.4886,11.5482 11.7996,11.3152 12.1466,11.1712 C12.4966,11.0252 12.9046,10.9512 13.3586,10.9512 C14.3306,10.9512 15.1376,11.2852 15.7586,11.9432 C16.3816,12.6032 16.6966,13.4612 16.6966,14.4922 C16.6966,15.5202 16.3856,16.4412 15.7716,17.2272 C15.1656,18.0062 14.2036,18.4002 12.9136,18.4002" id="Fill-11" fill="#FFFFFF"></path>
            </g>
        </g>
    </g>
</svg>