<?xml version="1.0" encoding="UTF-8" standalone="no"?>
<svg width="24px" height="25px" viewBox="0 0 24 25" version="1.1" xmlns="http://www.w3.org/2000/svg" xmlns:xlink="http://www.w3.org/1999/xlink">
    <!-- Generator: Sketch 47 (45396) - http://www.bohemiancoding.com/sketch -->
    <title>7</title>
    <desc>Created with Sketch.</desc>
    <defs></defs>
    <g id="Page-1" stroke="none" stroke-width="1" fill="none" fill-rule="evenodd">
        <g id="Modes-of-transport-and-lines" transform="translate(-171.000000, -836.000000)">
            <g id="7" transform="translate(171.000000, 836.000000)">
                <path d="M0.0004,12.6494 C0.0004,6.0224 5.3724,0.6494 12.0004,0.6494 C18.6274,0.6494 24.0004,6.0224 24.0004,12.6494 C24.0004,19.2774 18.6274,24.6494 12.0004,24.6494 C5.3724,24.6494 0.0004,19.2774 0.0004,12.6494" id="Fill-33" fill="#B933AD"></path>
                <path d="M9.6742,18.1397 C9.7602,16.1657 10.4282,14.0847 11.6592,11.9527 C12.4682,10.6097 13.1542,9.6597 13.6972,9.1307 L13.8742,8.9597 L8.0862,8.9597 L8.1142,7.1597 L15.9162,7.1597 L15.9162,8.8017 C15.6092,9.0617 15.1362,9.6567 14.5402,10.4977 C13.9462,11.3377 13.4412,12.2197 13.0362,13.1197 C12.7162,13.8277 12.4252,14.7007 12.1702,15.7147 C11.9262,16.6827 11.7962,17.4977 11.7842,18.1397 L9.6742,18.1397 Z" id="Fill-35" fill="#FFFFFF"></path>
            </g>
        </g>
    </g>
</svg>