<?xml version="1.0" encoding="UTF-8" standalone="no"?>
<svg width="24px" height="25px" viewBox="0 0 24 25" version="1.1" xmlns="http://www.w3.org/2000/svg" xmlns:xlink="http://www.w3.org/1999/xlink">
    <!-- Generator: Sketch 47 (45396) - http://www.bohemiancoding.com/sketch -->
    <title>B</title>
    <desc>Created with Sketch.</desc>
    <defs></defs>
    <g id="Page-1" stroke="none" stroke-width="1" fill="none" fill-rule="evenodd">
        <g id="Modes-of-transport-and-lines" transform="translate(-171.000000, -1026.000000)">
            <g id="B" transform="translate(171.000000, 1026.000000)">
                <path d="M0.0004,12.7051 C0.0004,6.0771 5.3724,0.7051 12.0004,0.7051 C18.6274,0.7051 24.0004,6.0771 24.0004,12.7051 C24.0004,19.3321 18.6274,24.7051 12.0004,24.7051 C5.3724,24.7051 0.0004,19.3321 0.0004,12.7051" id="Fill-65" fill="#FF6319"></path>
                <path d="M9.475,11.586 L12.373,11.586 C12.891,11.586 13.318,11.485 13.643,11.286 C13.986,11.077 14.159,10.708 14.159,10.19 C14.159,9.611 13.93,9.223 13.479,9.034 C13.109,8.909 12.64,8.848 12.079,8.848 L9.475,8.848 L9.475,11.586 Z M9.475,16.563 L12.371,16.563 C12.883,16.563 13.29,16.491 13.58,16.35 C14.12,16.082 14.393,15.568 14.393,14.822 C14.393,14.183 14.127,13.737 13.602,13.497 C13.316,13.366 12.914,13.298 12.41,13.293 L9.475,13.293 L9.475,16.563 Z M7.377,18.363 L7.377,7.047 L12.843,7.047 C14.205,7.067 15.183,7.466 15.747,8.233 C16.084,8.701 16.256,9.273 16.256,9.932 C16.256,10.607 16.084,11.156 15.746,11.563 C15.555,11.792 15.27,12.004 14.898,12.194 L14.694,12.299 L14.91,12.377 C15.474,12.582 15.905,12.911 16.191,13.354 C16.478,13.798 16.623,14.348 16.623,14.986 C16.623,15.646 16.455,16.246 16.125,16.769 C15.914,17.117 15.649,17.412 15.334,17.648 C14.98,17.919 14.556,18.107 14.074,18.209 C13.584,18.311 13.043,18.363 12.466,18.363 L7.377,18.363 Z" id="Fill-67" fill="#FFFFFF"></path>
            </g>
        </g>
    </g>
</svg>