<?xml version="1.0" encoding="UTF-8" standalone="no"?>
<svg width="25px" height="25px" viewBox="0 0 25 25" version="1.1" xmlns="http://www.w3.org/2000/svg" xmlns:xlink="http://www.w3.org/1999/xlink">
    <!-- Generator: Sketch 47 (45396) - http://www.bohemiancoding.com/sketch -->
    <title>C</title>
    <desc>Created with Sketch.</desc>
    <defs></defs>
    <g id="Page-1" stroke="none" stroke-width="1" fill="none" fill-rule="evenodd">
        <g id="Modes-of-transport-and-lines" transform="translate(-764.000000, -1026.000000)">
            <g id="C" transform="translate(764.000000, 1026.000000)">
                <path d="M0.3314,12.3057 C0.3314,5.6787 5.7034,0.3057 12.3314,0.3057 C18.9584,0.3057 24.3314,5.6787 24.3314,12.3057 C24.3314,18.9337 18.9584,24.3057 12.3314,24.3057 C5.7034,24.3057 0.3314,18.9337 0.3314,12.3057" id="Fill-92" fill="#0039A6"></path>
                <path d="M12.5365,18.1338 C10.9665,18.1338 9.7165,17.6198 8.8215,16.6068 C7.9215,15.5828 7.4645,14.1508 7.4645,12.3488 C7.4645,10.4038 7.9835,8.8858 9.0075,7.8408 C9.8905,6.9368 11.0345,6.4778 12.4045,6.4778 C14.2425,6.4778 15.6025,7.0908 16.4455,8.2998 C16.8625,8.9068 17.1095,9.5238 17.1815,10.1338 L15.1405,10.1338 C14.9875,9.6268 14.7905,9.2298 14.5545,8.9528 C14.0895,8.4088 13.3965,8.1338 12.4965,8.1338 C11.5745,8.1338 10.8365,8.5178 10.3045,9.2768 C9.7885,10.0138 9.5265,11.0608 9.5265,12.3878 C9.5265,13.7208 9.8055,14.7388 10.3525,15.4158 C10.9135,16.1058 11.6365,16.4538 12.5005,16.4538 C13.3865,16.4538 14.0735,16.1508 14.5465,15.5498 C14.7785,15.2618 14.9765,14.8378 15.1355,14.2898 L17.1345,14.2898 C16.9115,15.3908 16.4145,16.3048 15.6575,17.0068 C14.8515,17.7538 13.8025,18.1338 12.5365,18.1338" id="Fill-93" fill="#FFFFFF"></path>
            </g>
        </g>
    </g>
</svg>