<?xml version="1.0" encoding="UTF-8" standalone="no"?>
<svg width="25px" height="25px" viewBox="0 0 25 25" version="1.1" xmlns="http://www.w3.org/2000/svg" xmlns:xlink="http://www.w3.org/1999/xlink">
    <!-- Generator: Sketch 47 (45396) - http://www.bohemiancoding.com/sketch -->
    <title>D</title>
    <desc>Created with Sketch.</desc>
    <defs></defs>
    <g id="Page-1" stroke="none" stroke-width="1" fill="none" fill-rule="evenodd">
        <g id="Modes-of-transport-and-lines" transform="translate(-198.000000, -1026.000000)">
            <g id="D" transform="translate(198.000000, 1026.000000)">
                <path d="M0.4408,12.7051 C0.4408,6.0771 5.8138,0.7051 12.4408,0.7051 C19.0688,0.7051 24.4408,6.0771 24.4408,12.7051 C24.4408,19.3321 19.0688,24.7051 12.4408,24.7051 C5.8138,24.7051 0.4408,19.3321 0.4408,12.7051" id="Fill-69" fill="#FF6319"></path>
                <path d="M10.8021,16.5626 L13.1241,16.5626 C14.3011,16.5626 15.1321,15.9766 15.5951,14.8206 C15.8441,14.1966 15.9701,13.4456 15.9701,12.5876 C15.9701,11.4036 15.7811,10.4786 15.4051,9.8376 C15.0201,9.1806 14.2521,8.8476 13.1241,8.8476 L10.8021,8.8476 L10.8021,16.5626 Z M8.6651,18.3636 L8.6651,7.0466 L13.5311,7.0466 C14.2311,7.0576 14.8211,7.1406 15.2821,7.2916 C16.0661,7.5496 16.7081,8.0286 17.1941,8.7156 C17.5851,9.2746 17.8571,9.8886 17.9991,10.5396 C18.1431,11.1976 18.2161,11.8316 18.2161,12.4236 C18.2161,13.9296 17.9091,15.2226 17.3061,16.2646 C16.4951,17.6576 15.2251,18.3636 13.5311,18.3636 L8.6651,18.3636 Z" id="Fill-71" fill="#FFFFFF"></path>
            </g>
        </g>
    </g>
</svg>