<?xml version="1.0" encoding="UTF-8" standalone="no"?>
<svg width="24px" height="25px" viewBox="0 0 24 25" version="1.1" xmlns="http://www.w3.org/2000/svg" xmlns:xlink="http://www.w3.org/1999/xlink">
    <!-- Generator: Sketch 47 (45396) - http://www.bohemiancoding.com/sketch -->
    <title>G</title>
    <desc>Created with Sketch.</desc>
    <defs></defs>
    <g id="Page-1" stroke="none" stroke-width="1" fill="none" fill-rule="evenodd">
        <g id="Modes-of-transport-and-lines" transform="translate(-710.000000, -836.000000)">
            <g id="G" transform="translate(710.000000, 836.000000)">
                <path d="M0.0004,12.6494 C0.0004,6.0224 5.3724,0.6494 12.0004,0.6494 C18.6274,0.6494 24.0004,6.0224 24.0004,12.6494 C24.0004,19.2774 18.6274,24.6494 12.0004,24.6494 C5.3724,24.6494 0.0004,19.2774 0.0004,12.6494" id="Fill-61" fill="#6CBE45"></path>
                <path d="M11.9213,18.5049 C10.4603,18.5049 9.2473,17.9929 8.3173,16.9839 C7.3423,15.9629 6.8473,14.5429 6.8473,12.7629 C6.8473,10.9599 7.3483,9.4969 8.3353,8.4159 C9.3173,7.3399 10.6373,6.7939 12.2573,6.7939 C13.6653,6.7939 14.8093,7.1529 15.6553,7.8619 C16.4403,8.5169 16.9183,9.3319 17.0803,10.2859 L15.0993,10.2859 C14.8813,9.5199 14.4063,8.9709 13.6893,8.6529 C13.2713,8.4719 12.8003,8.3799 12.2883,8.3799 C11.3053,8.3799 10.4843,8.7559 9.8513,9.4989 C9.2263,10.2309 8.9093,11.3359 8.9093,12.7819 C8.9093,14.2469 9.2573,15.3069 9.9423,15.9329 C10.6233,16.5509 11.4103,16.8639 12.2803,16.8639 C13.1363,16.8639 13.8483,16.6129 14.3993,16.1179 C14.9463,15.6279 15.2883,14.9759 15.4153,14.1809 L15.4523,13.9499 L12.7533,13.9499 L12.7533,12.4269 L17.1513,12.4269 L17.1513,18.2079 L15.9273,18.2079 L15.6403,16.5119 L15.3623,16.8409 C14.9143,17.3659 14.5103,17.7389 14.1613,17.9489 C13.5603,18.3179 12.8063,18.5049 11.9213,18.5049" id="Fill-63" fill="#FFFFFF"></path>
            </g>
        </g>
    </g>
</svg>