<?xml version="1.0" encoding="UTF-8" standalone="no"?>
<svg width="24px" height="25px" viewBox="0 0 24 25" version="1.1" xmlns="http://www.w3.org/2000/svg" xmlns:xlink="http://www.w3.org/1999/xlink">
    <!-- Generator: Sketch 47 (45396) - http://www.bohemiancoding.com/sketch -->
    <title>J</title>
    <desc>Created with Sketch.</desc>
    <defs></defs>
    <g id="Page-1" stroke="none" stroke-width="1" fill="none" fill-rule="evenodd">
        <g id="Modes-of-transport-and-lines" transform="translate(-171.000000, -931.000000)">
            <g id="J" transform="translate(171.000000, 931.000000)">
                <path d="M0.0004,12.6494 C0.0004,6.0224 5.3724,0.6494 12.0004,0.6494 C18.6274,0.6494 24.0004,6.0224 24.0004,12.6494 C24.0004,19.2774 18.6274,24.6494 12.0004,24.6494 C5.3724,24.6494 0.0004,19.2774 0.0004,12.6494 Z" id="Fill-1" fill="#996633"></path>
                <path d="M12.0805,18.3477 C10.6985,18.3477 9.7665,17.9837 9.3085,17.2647 C8.8325,16.5157 8.5915,15.4727 8.5915,14.1647 L8.5915,14.0997 L10.4645,14.0997 L10.4645,14.1647 C10.4845,15.0957 10.5805,15.7357 10.7575,16.1257 C10.9565,16.5647 11.3715,16.7867 11.9925,16.7867 C12.7625,16.7867 13.0925,16.3987 13.2325,16.0727 C13.3485,15.8107 13.4035,15.3957 13.4035,14.8057 L13.4035,6.9517 L15.4095,6.9517 L15.4095,14.7667 C15.4095,15.7037 15.2515,16.4537 14.9405,16.9947 C14.4135,17.9057 13.4775,18.3477 12.0805,18.3477" id="Fill-3" fill="#FFFFFF"></path>
            </g>
        </g>
    </g>
</svg>