<?xml version="1.0" encoding="UTF-8" standalone="no"?>
<svg width="25px" height="25px" viewBox="0 0 25 25" version="1.1" xmlns="http://www.w3.org/2000/svg" xmlns:xlink="http://www.w3.org/1999/xlink">
    <!-- Generator: Sketch 47 (45396) - http://www.bohemiancoding.com/sketch -->
    <title>Q</title>
    <desc>Created with Sketch.</desc>
    <defs></defs>
    <g id="Page-1" stroke="none" stroke-width="1" fill="none" fill-rule="evenodd">
        <g id="Modes-of-transport-and-lines" transform="translate(-764.000000, -931.000000)">
            <g id="Q" transform="translate(764.000000, 931.000000)">
                <path d="M0.3314,12.7286 C0.3314,6.1006 5.7034,0.7286 12.3314,0.7286 C18.9584,0.7286 24.3314,6.1006 24.3314,12.7286 C24.3314,19.3556 18.9584,24.7286 12.3314,24.7286 C5.7034,24.7286 0.3314,19.3556 0.3314,12.7286" id="Fill-57" fill="#FCCC0A"></path>
                <path d="M12.3783,7.9239 C11.2033,7.9239 10.2623,8.2999 9.5803,9.0429 C8.8953,9.7929 8.5473,10.9749 8.5473,12.5559 C8.5473,13.8819 8.8823,14.9489 9.5443,15.7259 C10.1973,16.4939 11.1763,16.8829 12.4543,16.8829 C12.7673,16.8829 13.0623,16.8619 13.3313,16.8189 C13.4013,16.8079 13.4713,16.7919 13.5393,16.7749 L13.7363,16.7239 L12.5473,15.8009 L13.5813,14.5289 L15.0813,15.6999 L15.1433,15.6199 C15.4973,15.1589 15.7453,14.6499 15.8823,14.1049 C16.0483,13.4479 16.1313,12.8149 16.1313,12.2219 C16.1313,10.9269 15.7913,9.8729 15.1213,9.0899 C14.4483,8.3049 13.5513,7.9239 12.3783,7.9239 L12.3783,7.9239 Z M15.2573,17.9309 L15.2013,17.9589 C14.8053,18.1589 14.3823,18.3229 13.9433,18.4469 C13.4333,18.5929 12.8653,18.6659 12.2603,18.6659 C10.4263,18.6659 8.9673,18.0539 7.9223,16.8469 C7.0053,15.6769 6.5373,14.1959 6.5373,12.4499 C6.5373,10.8639 6.9393,9.4859 7.7303,8.3519 C8.7553,6.8849 10.2873,6.1409 12.2843,6.1409 C14.3673,6.1409 15.9363,6.8249 16.9443,8.1739 C17.7283,9.2189 18.1253,10.5699 18.1253,12.1909 C18.1253,12.9459 18.0303,13.6809 17.8453,14.3749 C17.5933,15.3239 17.1823,16.1299 16.6233,16.7699 L16.5543,16.8489 L18.1163,18.0679 L17.0843,19.3169 L15.2573,17.9309 Z" id="Fill-59" fill="#000000"></path>
            </g>
        </g>
    </g>
</svg>