<?xml version="1.0" encoding="UTF-8" standalone="no"?>
<svg width="25px" height="25px" viewBox="0 0 25 25" version="1.1" xmlns="http://www.w3.org/2000/svg" xmlns:xlink="http://www.w3.org/1999/xlink">
    <!-- Generator: Sketch 47 (45396) - http://www.bohemiancoding.com/sketch -->
    <title>R</title>
    <desc>Created with Sketch.</desc>
    <defs></defs>
    <g id="Page-1" stroke="none" stroke-width="1" fill="none" fill-rule="evenodd">
        <g id="Modes-of-transport-and-lines" transform="translate(-792.000000, -931.000000)">
            <g id="R" transform="translate(792.000000, 931.000000)">
                <path d="M0.0736,12.7286 C0.0736,6.1006 5.4466,0.7286 12.0736,0.7286 C18.7016,0.7286 24.0736,6.1006 24.0736,12.7286 C24.0736,19.3556 18.7016,24.7286 12.0736,24.7286 C5.4466,24.7286 0.0736,19.3556 0.0736,12.7286" id="Fill-45" fill="#FCCC0A"></path>
                <path d="M9.5346,12.2637 L12.3236,12.2637 C12.8666,12.2637 13.2856,12.1947 13.5686,12.0567 C14.0966,11.8037 14.3626,11.3067 14.3626,10.5797 C14.3626,9.8067 14.1056,9.2747 13.5986,8.9977 C13.3196,8.8457 12.9246,8.7717 12.3896,8.7717 L9.5346,8.7717 L9.5346,12.2637 Z M14.2606,18.2867 C14.2096,18.1037 14.1736,17.9507 14.1476,17.8297 C14.0886,17.5157 14.0556,17.1937 14.0506,16.8737 L14.0346,15.8047 C14.0246,15.0087 13.8816,14.4827 13.5966,14.1977 C13.3106,13.9097 12.8156,13.7717 12.0836,13.7717 L9.5346,13.7717 L9.5346,18.2867 L7.5816,18.2867 L7.5816,7.1697 L12.8896,7.1697 C13.6436,7.1857 14.2296,7.2807 14.6296,7.4517 C15.0216,7.6207 15.3586,7.8727 15.6316,8.2007 C15.8606,8.4757 16.0456,8.7837 16.1796,9.1157 C16.3106,9.4457 16.3786,9.8277 16.3786,10.2517 C16.3786,10.7637 16.2466,11.2757 15.9856,11.7737 C15.7356,12.2517 15.3136,12.5967 14.7316,12.7967 L14.2236,12.9707 L14.7216,13.1717 C15.2076,13.3677 15.5536,13.6437 15.7516,13.9937 C15.9546,14.3557 16.0576,14.9277 16.0576,15.6977 L16.0576,16.4707 C16.0576,17.0157 16.0796,17.3797 16.1256,17.5837 C16.1896,17.8827 16.3296,18.1177 16.5436,18.2867 L14.2606,18.2867 Z" id="Fill-47" fill="#000000"></path>
            </g>
        </g>
    </g>
</svg>