<?xml version="1.0" encoding="UTF-8" standalone="no"?>
<svg width="24px" height="25px" viewBox="0 0 24 25" version="1.1" xmlns="http://www.w3.org/2000/svg" xmlns:xlink="http://www.w3.org/1999/xlink">
    <!-- Generator: Sketch 47 (45396) - http://www.bohemiancoding.com/sketch -->
    <title>SIR</title>
    <desc>Created with Sketch.</desc>
    <defs></defs>
    <g id="Page-1" stroke="none" stroke-width="1" fill="none" fill-rule="evenodd">
        <g id="Modes-of-transport-and-lines" transform="translate(-171.000000, -1121.000000)">
            <g id="SIR" transform="translate(171.000000, 1121.000000)">
                <path d="M0.0004,12.3057 C0.0004,5.6787 5.3724,0.3057 12.0004,0.3057 C18.6274,0.3057 24.0004,5.6787 24.0004,12.3057 C24.0004,18.9337 18.6274,24.3057 12.0004,24.3057 C5.3724,24.3057 0.0004,18.9337 0.0004,12.3057" id="Fill-81" fill="#0078C6"></path>
                <path d="M6.2416,16.7618 C5.1326,16.7618 4.2506,16.5098 3.6206,16.0138 C3.0216,15.5418 2.7066,14.8888 2.6826,14.0728 L4.2186,14.0728 C4.2796,14.4418 4.3936,14.7268 4.5556,14.9218 C4.8746,15.2988 5.4166,15.4908 6.1706,15.4908 C6.6146,15.4908 6.9816,15.4418 7.2626,15.3448 C7.8196,15.1508 8.1006,14.7818 8.1006,14.2478 C8.1006,13.9278 7.9586,13.6758 7.6766,13.5008 C7.4156,13.3428 7.0016,13.2028 6.4446,13.0838 L5.5116,12.8788 C4.6096,12.6798 3.9836,12.4618 3.6516,12.2328 C3.0936,11.8498 2.8216,11.2658 2.8216,10.4458 C2.8216,9.7038 3.0976,9.0808 3.6426,8.5918 C4.1906,8.0998 5.0126,7.8498 6.0856,7.8498 C6.9796,7.8498 7.7526,8.0868 8.3836,8.5548 C8.9806,8.9978 9.3096,9.6438 9.3616,10.4748 L7.8236,10.4748 C7.7676,9.9678 7.5176,9.5988 7.0796,9.3778 C6.7786,9.2268 6.4016,9.1508 5.9596,9.1508 C5.4656,9.1508 5.0626,9.2498 4.7636,9.4488 C4.4506,9.6548 4.2926,9.9468 4.2926,10.3168 C4.2926,10.6628 4.4516,10.9248 4.7646,11.0958 C4.9536,11.2018 5.3376,11.3228 5.9376,11.4628 L7.4526,11.8208 C8.0996,11.9728 8.5896,12.1768 8.9066,12.4278 C9.3946,12.8128 9.6416,13.3798 9.6416,14.1138 C9.6416,14.8688 9.3456,15.5048 8.7616,16.0038 C8.1736,16.5068 7.3256,16.7618 6.2416,16.7618" id="Fill-83" fill="#FFFFFF"></path>
                <polygon id="Fill-85" fill="#FFFFFF" points="10.96 16.54 12.554 16.54 12.554 8.102 10.96 8.102"></polygon>
                <path d="M16.0463,11.9219 L18.0883,11.9219 C18.4923,11.9219 18.7913,11.8729 19.0003,11.7719 C19.3773,11.5899 19.5673,11.2329 19.5673,10.7089 C19.5673,10.1489 19.3843,9.7649 19.0213,9.5669 C18.8183,9.4559 18.5293,9.4019 18.1383,9.4019 L16.0463,9.4019 L16.0463,11.9219 Z M19.5033,16.5389 C19.4593,16.3839 19.4283,16.2559 19.4073,16.1559 C19.3623,15.9199 19.3373,15.6779 19.3333,15.4299 L19.3213,14.6279 C19.3143,14.0439 19.2113,13.6609 19.0083,13.4569 C18.8023,13.2519 18.4423,13.1519 17.9083,13.1519 L16.0463,13.1519 L16.0463,16.5389 L14.4823,16.5389 L14.4823,8.1019 L18.5133,8.1019 C19.0863,8.1129 19.5313,8.1859 19.8373,8.3169 C20.1393,8.4459 20.3983,8.6399 20.6073,8.8919 C20.7823,9.1019 20.9233,9.3369 21.0253,9.5919 C21.1273,9.8449 21.1793,10.1389 21.1793,10.4629 C21.1793,10.8559 21.0783,11.2469 20.8793,11.6279 C20.6833,12.0029 20.3663,12.2619 19.9103,12.4189 L19.6563,12.5069 L19.9053,12.6069 C20.2793,12.7569 20.5483,12.9729 20.7023,13.2459 C20.8583,13.5249 20.9393,13.9619 20.9393,14.5469 L20.9393,15.1269 C20.9393,15.5339 20.9543,15.8039 20.9883,15.9519 C21.0423,16.2009 21.1703,16.3879 21.3673,16.5079 L21.3563,16.5389 L19.5033,16.5389 Z" id="Fill-87" fill="#FFFFFF"></path>
            </g>
        </g>
    </g>
</svg>