<?xml version="1.0" encoding="UTF-8" standalone="no"?>
<svg width="24px" height="25px" viewBox="0 0 24 25" version="1.1" xmlns="http://www.w3.org/2000/svg" xmlns:xlink="http://www.w3.org/1999/xlink">
    <!-- Generator: Sketch 47 (45396) - http://www.bohemiancoding.com/sketch -->
    <title>W</title>
    <desc>Created with Sketch.</desc>
    <defs></defs>
    <g id="Page-1" stroke="none" stroke-width="1" fill="none" fill-rule="evenodd">
        <g id="Modes-of-transport-and-lines" transform="translate(-710.000000, -931.000000)">
            <g id="W" transform="translate(710.000000, 931.000000)">
                <path d="M0.0004,12.7286 C0.0004,6.1006 5.3724,0.7286 12.0004,0.7286 C18.6274,0.7286 24.0004,6.1006 24.0004,12.7286 C24.0004,19.3556 18.6274,24.7286 12.0004,24.7286 C5.3724,24.7286 0.0004,19.3556 0.0004,12.7286" id="Fill-49" fill="#FCCC0A"></path>
                <polygon id="Fill-51" fill="#000000" points="13.8559 18.3868 12.4819 11.7318 12.0769 9.5078 11.8789 9.5078 11.4729 11.7348 10.0999 18.3868 8.0219 18.3868 4.8129 7.0708 7.1569 7.0708 8.6589 13.5878 8.9889 15.4178 9.1859 15.4188 9.5179 13.6208 10.8019 7.0708 13.1779 7.0708 14.5299 13.5848 14.8789 15.4188 15.0759 15.4198 15.4309 13.6558 16.9479 7.0708 19.1869 7.0708 16.0019 18.3868"></polygon>
            </g>
        </g>
    </g>
</svg>